<?xml version="1.0" encoding="utf-8"?>
<!-- Generator: Adobe Illustrator 24.0.2, SVG Export Plug-In . SVG Version: 6.00 Build 0)  -->
<svg version="1.1" id="Layer_1" xmlns="http://www.w3.org/2000/svg" xmlns:xlink="http://www.w3.org/1999/xlink" x="0px" y="0px"
	 viewBox="0 0 886.9 793.9" style="enable-background:new 0 0 886.9 793.9;" xml:space="preserve">
<style type="text/css">
	.st0{fill:#00C9A7;}
	.st1{clip-path:url(#SVGID_2_);fill:none;stroke:#FFFFFF;stroke-width:6;stroke-miterlimit:10;}
	.st2{clip-path:url(#SVGID_4_);fill:none;stroke:#FFFFFF;stroke-width:6;stroke-miterlimit:10;}
	.st3{clip-path:url(#SVGID_6_);fill:none;stroke:#FFFFFF;stroke-width:7;stroke-miterlimit:10;}
	.st4{clip-path:url(#SVGID_8_);fill:none;stroke:#FFFFFF;stroke-width:7;stroke-miterlimit:10;}
	.st5{fill:#FFFFFF;stroke:#BDC5D1;stroke-width:1.8843;stroke-linecap:round;stroke-linejoin:round;stroke-miterlimit:10;}
	.st6{fill:none;stroke:#BDC5D1;stroke-width:1.8843;stroke-linecap:round;stroke-linejoin:round;stroke-miterlimit:10;}
	.st7{fill:#1E2022;}
	.st8{fill:#DFE2EC;}
	.st9{fill:#EDAF85;}
	.st10{fill:#19A0FF;}
	.st11{opacity:0.1;fill:#1E2022;enable-background:new    ;}
	.st12{fill:#377DFF;}
	.st13{fill:#00DFFC;}
	.st14{fill:none;stroke:#1E2022;stroke-width:3.1093;stroke-linecap:round;stroke-linejoin:round;stroke-miterlimit:10;}
	.st15{fill:none;stroke:#1E2022;stroke-width:2.1749;stroke-linecap:round;stroke-linejoin:round;stroke-miterlimit:10;}
	.st16{fill:#292D30;}
	.st17{fill:#E7EAF3;}
	
		.st18{fill:#FFFFFF;fill-opacity:0.3;stroke:#F7D928;stroke-width:1.5547;stroke-linecap:round;stroke-linejoin:round;stroke-miterlimit:9.9998;}
	.st19{fill:none;stroke:#F7D928;stroke-width:1.5547;stroke-linecap:round;stroke-linejoin:round;stroke-miterlimit:10;}
	.st20{fill:#2D1582;}
	.st21{opacity:0.5;fill:#00DFFC;enable-background:new    ;}
	.st22{fill:#FFC107;}
	.st23{clip-path:url(#SVGID_10_);fill:none;stroke:#BDC5D1;stroke-width:2;stroke-miterlimit:10;}
	.st24{clip-path:url(#SVGID_12_);fill:none;stroke:#BDC5D1;stroke-width:2;stroke-miterlimit:10;}
	.st25{clip-path:url(#SVGID_14_);fill:none;stroke:#BDC5D1;stroke-width:2;stroke-miterlimit:10;}
	.st26{clip-path:url(#SVGID_16_);fill:none;stroke:#BDC5D1;stroke-width:2;stroke-miterlimit:10;}
	.st27{clip-path:url(#SVGID_18_);fill:none;stroke:#BDC5D1;stroke-width:2;stroke-miterlimit:10;}
	.st28{clip-path:url(#SVGID_20_);fill:none;stroke:#BDC5D1;stroke-width:2;stroke-miterlimit:10;}
	.st29{clip-path:url(#SVGID_22_);fill:none;stroke:#BDC5D1;stroke-width:2;stroke-miterlimit:10;}
	.st30{clip-path:url(#SVGID_24_);fill:none;stroke:#BDC5D1;stroke-width:2;stroke-miterlimit:10;}
	.st31{clip-path:url(#SVGID_26_);fill:none;stroke:#BDC5D1;stroke-width:2;stroke-miterlimit:10;}
	.st32{fill:none;stroke:#00DFFC;stroke-width:5;stroke-miterlimit:10;}
</style>
<g>
	<g>
		<path id="abstractShapes4_2_1_" class="st0" d="M81.9,246.4c18.2,18.8,36.1,37.1,63,43.8c19.4,4.9,40.3,2.6,58.3-6.1
			c23.6-11.4,43.6-36,71.5-36.4c14.9-0.2,28.9,6.8,37.7,18.9c22.9,31.4,3,64.7-20.5,88.8c-27.5,28.2-62.8,52.3-62.6,96
			c0.1,25.9,16,53.8,7.2,79.7c-12.8,38.1-62.4,26-89.9,14.1c-24.9-10.8-48.8-22.2-71.4-37.4c-11.8-7.9-22.7-17.6-28.9-30.3
			c-15.3-31.2,13.2-52.4,21.8-80.1c4.6-14.7,3.4-30.2-2.6-44.4c-10.9-25.8-31.2-46.5-49.3-67.4c-17.3-19.9-24.9-58.1,6.6-69.9
			c14.4-5.4,28.7,1.4,39.5,11.1C68.9,233,75.4,239.8,81.9,246.4z"/>
	</g>
	<g>
		<g>
			<g>
				<g>
					<defs>
						<path id="SVGID_1_" d="M81.9,246.4c18.2,18.8,36.1,37.1,63,43.8c19.4,4.9,40.3,2.6,58.3-6.1c23.6-11.4,43.6-36,71.5-36.4
							c14.9-0.2,28.9,6.8,37.7,18.9c22.9,31.4,3,64.7-20.5,88.8c-27.5,28.2-62.8,52.3-62.6,96c0.1,25.9,16,53.8,7.2,79.7
							c-12.8,38.1-62.4,26-89.9,14.1c-24.9-10.8-48.8-22.2-71.4-37.4c-11.8-7.9-22.7-17.6-28.9-30.3c-15.3-31.2,13.2-52.4,21.8-80.1
							c4.6-14.7,3.4-30.2-2.6-44.4c-10.9-25.8-31.2-46.5-49.3-67.4c-17.3-19.9-24.9-58.1,6.6-69.9c14.4-5.4,28.7,1.4,39.5,11.1
							C68.9,233,75.4,239.8,81.9,246.4z"/>
					</defs>
					<clipPath id="SVGID_2_">
						<use xlink:href="#SVGID_1_"  style="overflow:visible;"/>
					</clipPath>
					<path class="st1" d="M50.6,401c0,0,5.3,46.5,90.3,57C226,468.5,244,553.9,244,553.9"/>
				</g>
			</g>
		</g>
	</g>
	<g>
		<g>
			<g>
				<g>
					<defs>
						<path id="SVGID_3_" d="M81.9,246.4c18.2,18.8,36.1,37.1,63,43.8c19.4,4.9,40.3,2.6,58.3-6.1c23.6-11.4,43.6-36,71.5-36.4
							c14.9-0.2,28.9,6.8,37.7,18.9c22.9,31.4,3,64.7-20.5,88.8c-27.5,28.2-62.8,52.3-62.6,96c0.1,25.9,16,53.8,7.2,79.7
							c-12.8,38.1-62.4,26-89.9,14.1c-24.9-10.8-48.8-22.2-71.4-37.4c-11.8-7.9-22.7-17.6-28.9-30.3c-15.3-31.2,13.2-52.4,21.8-80.1
							c4.6-14.7,3.4-30.2-2.6-44.4c-10.9-25.8-31.2-46.5-49.3-67.4c-17.3-19.9-24.9-58.1,6.6-69.9c14.4-5.4,28.7,1.4,39.5,11.1
							C68.9,233,75.4,239.8,81.9,246.4z"/>
					</defs>
					<clipPath id="SVGID_4_">
						<use xlink:href="#SVGID_3_"  style="overflow:visible;"/>
					</clipPath>
					<path class="st2" d="M58.5,361.5c0,0,5.3,46.5,90.3,57c85.1,10.5,103.1,95.9,103.1,95.9"/>
				</g>
			</g>
		</g>
	</g>
	<g>
		<g>
			<g>
				<g>
					<defs>
						<path id="SVGID_5_" d="M81.9,246.4c18.2,18.8,36.1,37.1,63,43.8c19.4,4.9,40.3,2.6,58.3-6.1c23.6-11.4,43.6-36,71.5-36.4
							c14.9-0.2,28.9,6.8,37.7,18.9c22.9,31.4,3,64.7-20.5,88.8c-27.5,28.2-62.8,52.3-62.6,96c0.1,25.9,16,53.8,7.2,79.7
							c-12.8,38.1-62.4,26-89.9,14.1c-24.9-10.8-48.8-22.2-71.4-37.4c-11.8-7.9-22.7-17.6-28.9-30.3c-15.3-31.2,13.2-52.4,21.8-80.1
							c4.6-14.7,3.4-30.2-2.6-44.4c-10.9-25.8-31.2-46.5-49.3-67.4c-17.3-19.9-24.9-58.1,6.6-69.9c14.4-5.4,28.7,1.4,39.5,11.1
							C68.9,233,75.4,239.8,81.9,246.4z"/>
					</defs>
					<clipPath id="SVGID_6_">
						<use xlink:href="#SVGID_5_"  style="overflow:visible;"/>
					</clipPath>
					<path class="st3" d="M3.5,272.4c0,0,6.6,56.7,112.3,69.6C221.7,354.9,244,459.2,244,459.2"/>
				</g>
			</g>
		</g>
	</g>
	<g>
		<g>
			<g>
				<g>
					<defs>
						<path id="SVGID_7_" d="M81.9,246.4c18.2,18.8,36.1,37.1,63,43.8c19.4,4.9,40.3,2.6,58.3-6.1c23.6-11.4,43.6-36,71.5-36.4
							c14.9-0.2,28.9,6.8,37.7,18.9c22.9,31.4,3,64.7-20.5,88.8c-27.5,28.2-62.8,52.3-62.6,96c0.1,25.9,16,53.8,7.2,79.7
							c-12.8,38.1-62.4,26-89.9,14.1c-24.9-10.8-48.8-22.2-71.4-37.4c-11.8-7.9-22.7-17.6-28.9-30.3c-15.3-31.2,13.2-52.4,21.8-80.1
							c4.6-14.7,3.4-30.2-2.6-44.4c-10.9-25.8-31.2-46.5-49.3-67.4c-17.3-19.9-24.9-58.1,6.6-69.9c14.4-5.4,28.7,1.4,39.5,11.1
							C68.9,233,75.4,239.8,81.9,246.4z"/>
					</defs>
					<clipPath id="SVGID_8_">
						<use xlink:href="#SVGID_7_"  style="overflow:visible;"/>
					</clipPath>
					<path class="st4" d="M41.5,208.8c0,0,6.6,56.7,112.3,69.6c105.8,12.9,128.1,117.2,128.1,117.2"/>
				</g>
			</g>
		</g>
	</g>
</g>
<g>
	<g>
		<rect x="472.2" y="707.8" class="st5" width="121.1" height="18"/>
		<line class="st6" x1="574.5" y1="720.8" x2="574.5" y2="713.1"/>
		<line class="st6" x1="484.6" y1="720" x2="484.6" y2="713.1"/>
		<line class="st6" x1="478.9" y1="720" x2="478.9" y2="713.1"/>
		<line class="st6" x1="494" y1="717" x2="524.5" y2="717"/>
	</g>
	<g>
		<rect x="480" y="684.1" class="st5" width="121.1" height="23.1"/>
		<line class="st6" x1="582.4" y1="700.8" x2="582.4" y2="691"/>
		<line class="st6" x1="492.5" y1="699.8" x2="492.5" y2="691"/>
		<line class="st6" x1="486.7" y1="699.8" x2="486.7" y2="691"/>
		<line class="st6" x1="501.9" y1="695.9" x2="532.3" y2="695.9"/>
	</g>
	<g>
		<rect x="455" y="746.1" class="st5" width="121.1" height="18"/>
		<line class="st6" x1="557.3" y1="759.1" x2="557.3" y2="751.4"/>
		<line class="st6" x1="467.4" y1="758.3" x2="467.4" y2="751.4"/>
		<line class="st6" x1="461.6" y1="758.3" x2="461.6" y2="751.4"/>
		<line class="st6" x1="476.8" y1="755.3" x2="507.3" y2="755.3"/>
	</g>
	<g>
		<rect x="480.4" y="726.9" class="st5" width="121.1" height="18"/>
		<line class="st6" x1="582.7" y1="740" x2="582.7" y2="732.3"/>
		<line class="st6" x1="492.9" y1="739.2" x2="492.9" y2="732.3"/>
		<line class="st6" x1="487.1" y1="739.2" x2="487.1" y2="732.3"/>
		<line class="st6" x1="502.2" y1="736.1" x2="532.7" y2="736.1"/>
	</g>
	<path class="st7" d="M222.6,432.9l-5.2,41.8c0,0,14.2-0.2,34.7,1.9c20.6,2.1,17.1-19.6,17.1-19.6L222.6,432.9z"/>
	<path class="st8" d="M512.7,677.1l78.5-140.6c0.8-0.7,1.5-1.4,3-0.7l0,0c0.7,0.8,1.4,1.5,0.7,3l-78.5,140.6
		c-0.7,1.4-2.2,1.4-3.7,0.7l0,0C512,679.4,511.2,677.9,512.7,677.1z"/>
	<path class="st8" d="M343.2,679L343.2,679c0-2.3,1.9-4.2,4.2-4.2h167.1c2.3,0,4.2,1.9,4.2,4.2l0,0c0,2.3-1.9,4.2-4.2,4.2H347.4
		C345.1,683.2,343.2,681.4,343.2,679z"/>
	<path class="st9" d="M419.6,678l-64,5.2c0,0-18.1-15.3,25.3-24.5s52.9,15.6,52.9,15.6L419.6,678z"/>
	<path class="st10" d="M268.9,656.7c0,0,43.7,17.4,82.5,19.1s28.5-16.9,28.5-16.9l-102.5-30.3L268.9,656.7z"/>
	<path class="st11" d="M268.9,656.7c0,0,43.7,17.4,82.5,19.1s28.5-16.9,28.5-16.9l-102.5-30.3L268.9,656.7z"/>
	<path class="st12" d="M191.2,466c-27.7,12.4-39.3,38.1-51.9,89.5s-6.5,163.3-6.5,163.3s21.9-2.3,48.5,0c26.7,2.3,78.8-15,78.8-15
		s36.8-10.8,26.2-79.2S265,526.1,260,503.3s-26.2-28.1-26.2-28.1L191.2,466z"/>
	<path class="st13" d="M191.3,465.9l-8.7,4c0,0,13.7,19.2,47,24s4.2-18.7,4.2-18.7L191.3,465.9z"/>
	<path class="st9" d="M302.7,376.1h-75.4l-23.7,30.2l12.8,14.7c-10.7,7.2-25.1,44.9-25.1,44.9c28.9,18.6,40.4,14.6,40.4,14.6v-33.9
		c0,0,16.7,12.8,29.7,15.1c13,2.3,22-27.4,22-27.4c15.6-0.4,9.8-13.8,7.7-21.9c-2.1-8,1.9-9,1.9-9
		C306.8,389.3,302.7,376.1,302.7,376.1z"/>
	<path class="st7" d="M294.2,402.8c22.1-10.1,25.5-20.3,24-27.5c-1.1-5.1-4.9-9.2-9.7-11.3c-6.4-2.8-18.9-9.5-27.8-21.6
		c-7.1-9.7-22-13.2-33.4-14.4c-9.2-1-18.5,0.9-26.5,5.5c-26.6,15.4-45.2,35.9-65.4,66.7c-23,35.1,41.9,58.2,41.9,58.2
		s23.3-38,18.8-41.2s-3.7-19.6,6.8-22.9c10.5-3.2,12.9,4.5,12.9,4.5s3.5-5.4,26.8-2.3c23.2,3.1,36.5-13,36.5-13
		C300.1,391.6,294.1,402.8,294.2,402.8z"/>
	<path class="st14" d="M274,401.7c8-1.9,10.2,2.4,10.2,2.4"/>
	<path class="st15" d="M276.6,446.3c-3.8-0.6-7.2-4.3-7.2-4.3"/>
	
		<ellipse transform="matrix(0.3568 -0.9342 0.9342 0.3568 -204.9473 524.1594)" class="st7" cx="278.2" cy="410.9" rx="5.1" ry="3"/>
	<polygon class="st12" points="244.4,656.7 248.3,707.3 353.8,699.6 352.8,693.2 349.2,671.2 	"/>
	<path class="st16" d="M404.8,736l20.3,31l38.1-22.9c2.8-1.7,5-4.4,5.9-7.6c8.4-28.3-23.5-42-23.5-42L404.8,736z"/>
	<polygon class="st13" points="352.8,693.2 349.2,671.2 355.6,671.6 359.7,692.5 	"/>
	<path class="st7" d="M429.5,679.6c20.3,11.1,19.9,20.3,19.9,20.3c-44.5,54.4-40.7,49.4-5,76.3s-72.8,12.3-72.8,12.3
		c-101.6,12.3-179,0-179,0c-61-3.1-59.8-69.8-59.8-69.8S409.1,668.5,429.5,679.6z"/>
	<path class="st10" d="M351.3,683.6c0,0,4.4-0.5-56,7.9s-77.8-31.9-108.5-69.5c-1.3-1.6-2.5-3.2-3.7-4.9
		c-7.3-10.2-12.2-22-14.4-34.3c-2.4-13.4-0.5-26.9,0.4-40.4c0.6-7.9,0.3-16.4,3.6-23.8c3.5-7.9,12.4-12.9,20.8-10.2
		c8.1,2.6,11.7,11.8,15.6,18.6c14.1,24.3,24.4,50.9,34.4,77c40.5,105.8,105.7,67.2,105.7,67.2L351.3,683.6z"/>
	<path class="st11" d="M351.3,683.6c0,0,4.4-0.5-56,7.9s-77.8-31.9-108.5-69.5c-1.3-1.6-2.5-3.2-3.7-4.9
		c-7.3-10.2-12.2-22-14.4-34.3c-2.4-13.4-0.5-26.9,0.4-40.4c0.6-7.9,0.3-16.4,3.6-23.8c3.5-7.9,12.4-12.9,20.8-10.2
		c8.1,2.6,11.7,11.8,15.6,18.6c14.1,24.3,24.4,50.9,34.4,77c40.5,105.8,105.7,67.2,105.7,67.2L351.3,683.6z"/>
	<polygon class="st17" points="182.9,470.3 182.4,470.6 182.6,469.8 	"/>
	<path class="st14" d="M221.9,408.9c0.3-5.6,5-7,5-7"/>
	
		<ellipse transform="matrix(0.2618 -0.9651 0.9651 0.2618 -190.144 575.4376)" class="st18" cx="281.1" cy="412" rx="13.4" ry="4.6"/>
	<line class="st19" x1="234.4" y1="394.1" x2="276.7" y2="409.7"/>
	<path class="st19" d="M290,407.7c-1.4-0.8-3.5,0.4-3.5,0.4"/>
</g>
<g>
	<circle class="st20" cx="502" cy="87.9" r="2.1"/>
	<circle class="st20" cx="548.4" cy="87.9" r="2.1"/>
	<circle class="st20" cx="594.8" cy="87.9" r="2.1"/>
	<circle class="st20" cx="641.2" cy="87.9" r="2.1"/>
	<circle class="st20" cx="687.6" cy="87.9" r="2.1"/>
	<circle class="st20" cx="502" cy="134.3" r="2.1"/>
	<circle class="st20" cx="548.4" cy="134.3" r="2.1"/>
	<circle class="st20" cx="594.8" cy="134.3" r="2.1"/>
	<circle class="st20" cx="641.2" cy="134.3" r="2.1"/>
	<circle class="st20" cx="502" cy="180.7" r="2.1"/>
	<circle class="st20" cx="548.4" cy="180.7" r="2.1"/>
	<circle class="st20" cx="594.8" cy="180.7" r="2.1"/>
	<circle class="st20" cx="641.2" cy="180.7" r="2.1"/>
	<circle class="st20" cx="687.6" cy="180.7" r="2.1"/>
	<circle class="st20" cx="734" cy="180.7" r="2.1"/>
	<circle class="st20" cx="502" cy="227.1" r="2.1"/>
	<circle class="st20" cx="548.4" cy="227.1" r="2.1"/>
	<circle class="st20" cx="594.8" cy="227.1" r="2.1"/>
	<circle class="st20" cx="641.2" cy="227.1" r="2.1"/>
	<circle class="st20" cx="687.6" cy="227.1" r="2.1"/>
	<circle class="st20" cx="734" cy="227.1" r="2.1"/>
	<circle class="st20" cx="502" cy="273.5" r="2.1"/>
	<circle class="st20" cx="548.4" cy="273.5" r="2.1"/>
	<circle class="st20" cx="594.8" cy="273.5" r="2.1"/>
	<circle class="st20" cx="641.2" cy="273.5" r="2.1"/>
	<circle class="st20" cx="687.6" cy="273.5" r="2.1"/>
	<circle class="st20" cx="734" cy="273.5" r="2.1"/>
	<circle class="st20" cx="502" cy="320" r="2.1"/>
	<circle class="st20" cx="548.4" cy="320" r="2.1"/>
	<circle class="st20" cx="594.8" cy="320" r="2.1"/>
	<circle class="st20" cx="641.2" cy="320" r="2.1"/>
	<circle class="st20" cx="687.6" cy="320" r="2.1"/>
	<circle class="st20" cx="734" cy="320" r="2.1"/>
</g>
<polygon class="st21" points="766.1,0 679.7,149.6 852.4,149.6 "/>
<circle class="st22" cx="829.9" cy="163.6" r="57"/>
<g>
	<g>
		<g>
			<g>
				<g>
					<defs>
						<polygon id="SVGID_9_" points="20.1,13.2 31,136.4 132.3,65.5 						"/>
					</defs>
					<clipPath id="SVGID_10_">
						<use xlink:href="#SVGID_9_"  style="overflow:visible;"/>
					</clipPath>
					<line class="st23" x1="-44.8" y1="60.6" x2="86.4" y2="-31.5"/>
				</g>
			</g>
		</g>
	</g>
	<g>
		<g>
			<g>
				<g>
					<defs>
						<polygon id="SVGID_11_" points="20.1,13.2 31,136.4 132.3,65.5 						"/>
					</defs>
					<clipPath id="SVGID_12_">
						<use xlink:href="#SVGID_11_"  style="overflow:visible;"/>
					</clipPath>
					<line class="st24" x1="-37.2" y1="71.2" x2="94" y2="-20.9"/>
				</g>
			</g>
		</g>
	</g>
	<g>
		<g>
			<g>
				<g>
					<defs>
						<polygon id="SVGID_13_" points="20.1,13.2 31,136.4 132.3,65.5 						"/>
					</defs>
					<clipPath id="SVGID_14_">
						<use xlink:href="#SVGID_13_"  style="overflow:visible;"/>
					</clipPath>
					<line class="st25" x1="-29.6" y1="81.8" x2="101.2" y2="-10.3"/>
				</g>
			</g>
		</g>
	</g>
	<g>
		<g>
			<g>
				<g>
					<defs>
						<polygon id="SVGID_15_" points="20.1,13.2 31,136.4 132.3,65.5 						"/>
					</defs>
					<clipPath id="SVGID_16_">
						<use xlink:href="#SVGID_15_"  style="overflow:visible;"/>
					</clipPath>
					<line class="st26" x1="-22.4" y1="92.4" x2="108.8" y2="0.3"/>
				</g>
			</g>
		</g>
	</g>
	<g>
		<g>
			<g>
				<g>
					<defs>
						<polygon id="SVGID_17_" points="20.1,13.2 31,136.4 132.3,65.5 						"/>
					</defs>
					<clipPath id="SVGID_18_">
						<use xlink:href="#SVGID_17_"  style="overflow:visible;"/>
					</clipPath>
					<line class="st27" x1="-14.8" y1="103" x2="116.3" y2="10.9"/>
				</g>
			</g>
		</g>
	</g>
	<g>
		<g>
			<g>
				<g>
					<defs>
						<polygon id="SVGID_19_" points="20.1,13.2 31,136.4 132.3,65.5 						"/>
					</defs>
					<clipPath id="SVGID_20_">
						<use xlink:href="#SVGID_19_"  style="overflow:visible;"/>
					</clipPath>
					<line class="st28" x1="-7.2" y1="113.7" x2="123.6" y2="21.5"/>
				</g>
			</g>
		</g>
	</g>
	<g>
		<g>
			<g>
				<g>
					<defs>
						<polygon id="SVGID_21_" points="20.1,13.2 31,136.4 132.3,65.5 						"/>
					</defs>
					<clipPath id="SVGID_22_">
						<use xlink:href="#SVGID_21_"  style="overflow:visible;"/>
					</clipPath>
					<line class="st29" x1="0" y1="124.3" x2="131.1" y2="32.1"/>
				</g>
			</g>
		</g>
	</g>
	<g>
		<g>
			<g>
				<g>
					<defs>
						<polygon id="SVGID_23_" points="20.1,13.2 31,136.4 132.3,65.5 						"/>
					</defs>
					<clipPath id="SVGID_24_">
						<use xlink:href="#SVGID_23_"  style="overflow:visible;"/>
					</clipPath>
					<line class="st30" x1="7.5" y1="134.9" x2="138.7" y2="42.8"/>
				</g>
			</g>
		</g>
	</g>
	<g>
		<g>
			<g>
				<g>
					<defs>
						<polygon id="SVGID_25_" points="20.1,13.2 31,136.4 132.3,65.5 						"/>
					</defs>
					<clipPath id="SVGID_26_">
						<use xlink:href="#SVGID_25_"  style="overflow:visible;"/>
					</clipPath>
					<line class="st31" x1="15.1" y1="145.5" x2="145.9" y2="53.4"/>
				</g>
			</g>
		</g>
	</g>
</g>
<path class="st32" d="M140.5,140.4L140.5,140.4c7.7,0,14-6.2,14-14l0,0c0-7.7-6.2-14-14-14l0,0c-7.7,0-14,6.2-14,14l0,0
	C126.5,134.2,132.7,140.4,140.5,140.4z"/>
</svg>
